<?xml version="1.0" standalone="no"?>
<!DOCTYPE svg PUBLIC "-//W3C//DTD SVG 20010904//EN"
 "http://www.w3.org/TR/2001/REC-SVG-20010904/DTD/svg10.dtd">
<svg version="1.0" xmlns="http://www.w3.org/2000/svg"
 width="700.000000pt" height="700.000000pt" viewBox="0 0 700.000000 700.000000"
 preserveAspectRatio="xMidYMid meet">

<g transform="translate(0.000000,700.000000) scale(0.100000,-0.100000)"
fill="#000000" stroke="none">
<path d="M1250 3500 l0 -2250 2250 0 2250 0 0 355 0 355 -271 0 -270 0 -78 83
c-43 45 -104 112 -136 150 -31 37 -60 67 -64 67 -4 0 -69 -68 -145 -150 l-137
-150 -900 0 -899 0 0 720 0 720 -289 2 -290 3 36 75 c19 41 50 109 68 150 18
41 58 134 90 205 86 196 118 268 177 405 31 69 65 145 76 170 12 25 55 124 98
220 42 96 99 226 127 288 l50 112 347 0 348 0 24 -52 c14 -29 67 -149 119
-266 l94 -213 3 266 2 265 433 -2 432 -3 38 -105 c21 -58 41 -116 45 -130 13
-47 57 -160 62 -160 3 0 20 44 39 98 18 53 50 143 70 199 l36 103 333 0 332 0
0 360 0 360 -2250 0 -2250 0 0 -2250z"/>
<path d="M3095 4778 c-15 -35 -37 -83 -48 -108 -98 -226 -173 -394 -193 -438
-13 -29 -24 -54 -24 -57 0 -2 -16 -39 -36 -82 -20 -43 -57 -125 -81 -183 -25
-58 -56 -130 -70 -160 -43 -94 -63 -141 -63 -151 0 -6 73 -8 182 -7 l182 3 49
123 50 122 295 -2 296 -3 29 -70 c16 -38 39 -94 52 -122 l24 -53 360 0 361 0
1 438 c1 403 2 434 16 402 14 -31 202 -538 234 -630 7 -19 27 -73 45 -120 l32
-85 149 -3 148 -2 39 102 c21 57 58 157 81 223 96 268 198 541 205 549 5 4 8
2 7 -5 0 -8 1 -206 1 -441 l2 -428 165 0 165 0 0 625 0 625 -262 0 -263 0 -94
-263 c-167 -464 -183 -507 -191 -507 -6 0 -143 370 -250 678 l-33 92 -268 0
-269 0 0 -622 c0 -342 -4 -618 -8 -613 -7 8 -90 192 -162 360 -26 60 -114 257
-135 300 -13 28 -33 73 -43 100 -11 28 -33 79 -50 115 -51 112 -139 314 -146
338 -7 22 -8 22 -230 22 l-223 0 -28 -62z m276 -315 c17 -38 46 -107 64 -155
18 -47 40 -99 48 -115 8 -15 18 -38 21 -50 l7 -23 -174 0 -175 0 52 128 c84
202 118 282 123 282 2 0 17 -30 34 -67z"/>
<path d="M3052 2773 l3 -628 533 -3 532 -2 0 145 0 145 -365 0 -365 0 0 100 0
100 355 0 355 0 0 140 0 140 -355 0 -355 0 0 100 0 100 365 0 365 0 0 145 0
145 -535 0 -535 0 2 -627z"/>
<path d="M4261 3258 c74 -78 190 -201 259 -273 68 -71 141 -148 163 -171 l38
-41 -43 -44 c-139 -144 -532 -568 -536 -580 -2 -5 88 -9 201 -9 l205 0 74 78
c41 42 117 124 169 182 52 58 104 116 116 130 l23 25 23 -25 c13 -14 79 -86
147 -160 68 -74 143 -156 167 -182 l44 -48 215 0 c118 0 214 3 214 6 0 4 -53
61 -117 128 -65 67 -163 170 -218 229 -55 60 -133 143 -173 185 -40 42 -71 82
-70 89 2 7 104 119 228 249 124 129 254 266 289 305 l64 69 -219 -1 -219 -1
-130 -145 c-187 -210 -227 -253 -236 -253 -8 0 -270 285 -328 358 l-34 42
-225 0 -224 0 133 -142z"/>
<path d="M5579 2953 l-166 -177 166 -178 166 -177 3 180 c1 99 1 259 0 355
l-3 174 -166 -177z"/>
</g>
</svg>
